<svg viewBox="0 0 532 535" fill="none" xmlns="http://www.w3.org/2000/svg" stroke="#ff9b2a">
<path d="M191 330C218.062 330 240 308.062 240 281C240 253.938 218.062 232 191 232C163.938 232 142 253.938 142 281C142 308.062 163.938 330 191 330Z" stroke-width="8"/>
<path d="M338 330C365.062 330 387 308.062 387 281C387 253.938 365.062 232 338 232C310.938 232 289 253.938 289 281C289 308.062 310.938 330 338 330Z" stroke-width="8"/>
<path d="M218.321 178.069C226.143 177.988 233.879 177.967 241.616 178.068C243.438 178.092 245.261 178.151 247.084 178.172C248.946 178.193 250.482 179.599 250.637 181.473C250.693 182.15 250.697 182.839 250.455 183.479C250.052 184.547 249.555 185.44 248.174 185.589C244.897 185.942 241.62 186.145 238.325 186.073C237.77 186.061 237.214 186.035 236.61 186.177C236.741 187.176 237.142 188.091 237.441 189.026C238.721 193.027 240.048 197.012 241.321 201.014C241.552 201.743 242.006 201.821 242.651 201.835C251.18 202.02 259.71 201.967 268.239 202.083C273.592 202.157 278.944 201.929 284.292 202.086C289.265 202.232 294.229 201.898 299.199 201.96C301.25 201.986 303.303 201.69 305.357 201.574C306.175 201.527 306.143 201.118 305.951 200.517C304.61 196.321 303.284 192.119 301.952 187.92C301.526 186.577 301.086 185.238 300.669 183.892C299.721 180.831 301.654 178.229 304.836 178.167C313.983 177.987 323.131 177.955 332.278 178.071C334.16 178.094 336.041 178.156 337.923 178.172C340.939 178.197 342.645 180.51 341.771 183.414C341.303 184.968 340.132 185.851 338.511 185.87C332.864 185.934 327.218 185.991 321.572 186.063C318.425 186.103 315.279 186.171 312.133 186.221C310.791 186.243 310.686 186.365 311.132 187.659C313.198 193.657 315.29 199.646 317.346 205.647C319.849 212.953 322.386 220.249 324.774 227.593C325.486 229.783 325.812 232.108 326.201 234.39C326.678 237.189 327.673 239.825 328.561 242.496C332.594 254.622 336.638 266.745 340.701 278.86C341.151 280.202 340.993 281.468 340.508 282.725C340.124 283.72 339.369 284.368 338.338 284.632C336.696 285.052 335.139 285.048 333.865 283.659C333.474 283.233 333.214 282.771 333.036 282.232C329.587 271.77 326.126 261.312 322.68 250.849C321.367 246.86 319.975 242.891 318.822 238.855C317.978 235.898 317.391 232.864 316.557 229.897C315.46 225.992 314.163 222.153 312.776 218.344C312.715 218.178 312.644 218.016 312.568 217.857C312.443 217.596 312.363 217.263 312.018 217.228C311.654 217.191 311.55 217.54 311.394 217.772C304.012 228.787 296.659 239.82 289.251 250.817C282.68 260.57 276.05 270.282 269.446 280.013C268.521 281.375 267.578 282.725 266.682 284.106C266.339 284.635 265.935 284.836 265.304 284.834C261.48 284.822 257.655 284.814 253.832 284.864C237.536 285.076 221.24 284.993 204.945 284.927C199.828 284.906 194.71 284.861 189.592 284.824C186.466 284.802 184.525 282.469 185.101 279.4C185.205 278.846 185.42 278.347 185.739 277.871C193.192 266.764 200.636 255.651 208.079 244.538C216.03 232.666 223.983 220.796 231.923 208.916C234.044 205.742 233.984 206.613 232.704 202.828C230.917 197.541 229.169 192.242 227.583 186.892C227.389 186.24 227.059 186.024 226.39 186.032C223.684 186.061 220.977 186.061 218.271 186.031C216.244 186.009 214.216 185.936 212.189 185.865C210.86 185.819 209.433 184.118 209.273 182.428C209.065 180.236 210.904 178.208 213.121 178.173C214.826 178.146 216.531 178.104 218.321 178.069ZM249.675 253.658C245.598 241.421 241.512 229.187 237.272 216.909C235.133 218.944 198.357 273.934 197.693 276.016C197.916 276.189 198.188 276.146 198.442 276.151C199.939 276.186 201.436 276.237 202.933 276.237C209.372 276.238 215.811 276.236 222.25 276.183C232.246 276.101 242.242 276.051 252.237 275.912C253.53 275.894 254.822 275.831 256.114 275.78C256.367 275.77 256.655 275.822 256.91 275.405C254.533 268.264 252.125 261.028 249.675 253.658ZM292.271 229.329C296.244 223.38 300.217 217.431 304.199 211.467C303.517 210.994 302.917 210.953 302.29 211.004C301.382 211.078 300.466 211.242 299.567 211.18C295.487 210.9 291.395 210.956 287.318 210.939C277.645 210.899 267.969 210.766 258.295 211.061C254.799 211.167 251.296 211.053 247.796 211.046C247.209 211.045 246.619 211.046 246.036 211.101C245.286 211.172 245.082 211.515 245.338 212.293C251.537 231.151 257.881 249.96 264.375 268.718C264.496 269.068 264.546 269.474 265.137 269.71C274.148 256.301 283.175 242.868 292.271 229.329Z" fill="#ff9b2a"/>
<path d="M264.5 8L5 267.5V314.682L264.5 55.1818L476.818 267.5L264.5 479.818L111.159 326.477V373.659L264.5 527L524 267.5L264.5 8Z" stroke-width="10"/>
</svg>
