<svg width="19" height="20" viewBox="0 0 19 20" xmlns="http://www.w3.org/2000/svg" fill="#ff5556">
<path d="M15.8342 2.31865H10.6348C10.12 2.31865 9.70464 1.91254 9.70464 1.40932C9.70464 0.906104 10.12 0.5 10.6348 0.5H15.8342C17.5794 0.5 19 1.88766 19 3.59503V16.405C19 18.1111 17.5806 19.5 15.8342 19.5H10.6348C10.12 19.5 9.70464 19.0939 9.70464 18.5907C9.70464 18.0875 10.12 17.6814 10.6348 17.6814L15.8342 17.6802C16.5536 17.6802 17.1397 17.1071 17.1397 16.4038V3.59509C17.1397 2.89179 16.5536 2.31865 15.8342 2.31865Z"/>
<path d="M6.12697 15.0816C5.94409 15.2604 5.70792 15.348 5.46934 15.348C5.23076 15.348 4.99216 15.2604 4.81171 15.0816L0.272389 10.6438C-0.0909491 10.2886 -0.0909491 9.71317 0.272389 9.35914L4.81171 4.91558C5.17505 4.56037 5.76363 4.56037 6.12576 4.91558C6.4891 5.27079 6.4891 5.84621 6.12576 6.20024L3.17553 9.08922H11.0816C11.5963 9.08922 12.0117 9.49532 12.0117 9.99854C12.0117 10.5018 11.5963 10.9079 11.0816 10.9079H3.17553L6.12697 13.7933C6.49273 14.1485 6.49273 14.724 6.12697 15.0816Z"/>
</svg>
