<svg width="43" height="43" viewBox="0 0 43 43" xmlns="http://www.w3.org/2000/svg" fill="#ff9b2a">
  <rect width="43" height="43" rx="5" fill="none" stroke="#ff9b2a" stroke-width="2"/>
<path d="M14.8817 6.67242H8.0751C7.89089 6.67241 7.70848 6.70827 7.53828 6.77796C7.36809 6.84765 7.21344 6.9498 7.08319 7.07858C6.95293 7.20735 6.8496 7.36024 6.77911 7.5285C6.70862 7.69676 6.67235 7.8771 6.67236 8.05922V14.7879C6.67236 15.1557 6.82015 15.5084 7.08322 15.7685C7.34628 16.0286 7.70307 16.1747 8.0751 16.1747C8.44713 16.1747 8.80393 16.0286 9.06699 15.7685C9.33006 15.5084 9.47784 15.1557 9.47784 14.7879V9.44601H14.8817C15.2537 9.44601 15.6105 9.2999 15.8736 9.03983C16.1366 8.77975 16.2844 8.42702 16.2844 8.05922C16.2844 7.69142 16.1366 7.33868 15.8736 7.07861C15.6105 6.81853 15.2537 6.67242 14.8817 6.67242Z"/>
<path d="M36.6692 8.05928C36.6692 7.87716 36.6329 7.69682 36.5624 7.52856C36.492 7.3603 36.3886 7.20742 36.2584 7.07864C36.1281 6.94986 35.9735 6.84771 35.8033 6.77802C35.6331 6.70833 35.4507 6.67247 35.2664 6.67249H28.4599C28.2757 6.67249 28.0933 6.70836 27.9231 6.77805C27.7529 6.84774 27.5982 6.94989 27.468 7.07867C27.3377 7.20744 27.2344 7.36032 27.1639 7.52858C27.0934 7.69683 27.0571 7.87716 27.0571 8.05928C27.0571 8.24139 27.0934 8.42173 27.1639 8.58998C27.2344 8.75823 27.3377 8.91111 27.468 9.03989C27.5982 9.16867 27.7529 9.27082 27.9231 9.34051C28.0933 9.4102 28.2757 9.44607 28.4599 9.44607H33.8637V14.7879C33.8637 15.1557 34.0115 15.5085 34.2746 15.7686C34.5376 16.0286 34.8944 16.1747 35.2664 16.1747C35.6385 16.1747 35.9953 16.0286 36.2583 15.7686C36.5214 15.5085 36.6692 15.1557 36.6692 14.7879V8.05928Z"/>
<path d="M6.67236 34.9408C6.67235 35.123 6.70862 35.3033 6.77911 35.4716C6.8496 35.6398 6.95293 35.7927 7.08319 35.9215C7.21344 36.0503 7.36809 36.1524 7.53828 36.2221C7.70848 36.2918 7.89089 36.3276 8.0751 36.3276H14.8817C15.2537 36.3276 15.6105 36.1815 15.8736 35.9214C16.1366 35.6614 16.2844 35.3086 16.2844 34.9408C16.2844 34.573 16.1366 34.2203 15.8736 33.9602C15.6105 33.7002 15.2537 33.554 14.8817 33.554H9.47784V28.2122C9.47784 27.8444 9.33006 27.4916 9.06699 27.2316C8.80393 26.9715 8.44713 26.8254 8.0751 26.8254C7.70307 26.8254 7.34628 26.9715 7.08322 27.2316C6.82015 27.4916 6.67236 27.8444 6.67236 28.2122V34.9408Z"/>
<path d="M36.6692 28.2122C36.6692 27.8444 36.5214 27.4916 36.2583 27.2316C35.9953 26.9715 35.6385 26.8254 35.2664 26.8254C34.8944 26.8254 34.5376 26.9715 34.2746 27.2316C34.0115 27.4916 33.8637 27.8444 33.8637 28.2122V33.554H28.4599C28.0878 33.554 27.731 33.7002 27.468 33.9602C27.2049 34.2203 27.0571 34.573 27.0571 34.9408C27.0571 35.3086 27.2049 35.6614 27.468 35.9214C27.731 36.1815 28.0878 36.3276 28.4599 36.3276H35.2664C35.4507 36.3276 35.6331 36.2918 35.8033 36.2221C35.9735 36.1524 36.1281 36.0503 36.2584 35.9215C36.3886 35.7927 36.492 35.6398 36.5624 35.4716C36.6329 35.3033 36.6692 35.123 36.6692 34.9408V28.2122Z"/>
<path d="M9.86035 21.5C9.86034 21.6821 9.89661 21.8625 9.9671 22.0307C10.0376 22.199 10.1409 22.3519 10.2712 22.4807C10.4014 22.6094 10.5561 22.7116 10.7263 22.7813C10.8965 22.851 11.0789 22.8868 11.2631 22.8868H32.0784C32.4505 22.8868 32.8073 22.7407 33.0703 22.4806C33.3334 22.2206 33.4812 21.8678 33.4812 21.5C33.4812 21.1322 33.3334 20.7795 33.0703 20.5194C32.8073 20.2593 32.4505 20.1132 32.0784 20.1132H11.2631C11.0789 20.1132 10.8965 20.1491 10.7263 20.2188C10.5561 20.2884 10.4014 20.3906 10.2712 20.5194C10.1409 20.6482 10.0376 20.801 9.9671 20.9693C9.89661 21.1376 9.86034 21.3179 9.86035 21.5Z"/>
</svg>
